<svg xmlns="http://www.w3.org/2000/svg" version="1.1" viewBox="0 0 200 200">
  <rect width="200" height="200" fill="#2b7fff" />
  <g fill="#ffffff" transform="matrix(9.283516483516484,0,0,9.283516483516484,38.079019585546554,166.00517830377098)">
    <path d="M6.69-4.82L4.50-4.82L4.50 0L1.07 0L1.07-14.22L6.75-14.22Q8.38-14.22 9.63-13.62Q10.89-13.02 11.58-11.91Q12.27-10.80 12.27-9.39L12.27-9.39Q12.27-7.31 10.78-6.07Q9.29-4.82 6.69-4.82L6.69-4.82ZM4.50-11.57L4.50-7.47L6.75-7.47Q7.74-7.47 8.27-7.97Q8.79-8.47 8.79-9.38L8.79-9.38Q8.79-10.37 8.25-10.97Q7.71-11.56 6.79-11.57L6.79-11.57L4.50-11.57Z" />
  </g>
  <style>
    @media (prefers-color-scheme: light) { :root { filter: contrast(1) brightness(1); } }
    @media (prefers-color-scheme: dark) { :root { filter: none; } }
  </style>
</svg>
